HIERARCHY
ROOT hip
{
	OFFSET 0.000000 0.000000 0.000000 
	CHANNELS 6 Xposition Yposition Zposition Xrotation Zrotation Yrotation
	JOINT abdomen
	{
		OFFSET 0.000000 3.402643 0.000000 
		CHANNELS 3 Xrotation Zrotation Yrotation
		JOINT chest
		{
			OFFSET 0.000000 8.438565 -0.680529 
			CHANNELS 3 Xrotation Zrotation Yrotation
			JOINT neck
			{
				OFFSET 0.000000 10.207942 -0.272212 
				CHANNELS 3 Xrotation Zrotation Yrotation
				JOINT head
				{
					OFFSET 0.000000 3.130431 0.000000 
					CHANNELS 3 Xrotation Zrotation Yrotation
					End Site
					{
						OFFSET 0.000000 3.130435 0.000000 
					}
				}
			}
			JOINT lCollar
			{
				OFFSET 3.470700 6.669187 -0.816635 
				CHANNELS 3 Yrotation Zrotation Xrotation
				JOINT lShldr
				{
					OFFSET 3.198488 0.000000 0.000000 
					CHANNELS 3 Zrotation Yrotation Xrotation
					JOINT lForeArm
					{
						OFFSET 10.139888 0.000000 0.000000 
						CHANNELS 3 Yrotation Zrotation Xrotation
						JOINT lHand
						{
							OFFSET 8.370511 0.000000 0.000000 
							CHANNELS 3 Zrotation Yrotation Xrotation
							End Site
							{
								OFFSET 4.083176 0.000000 0.000000 
							}
						}
					}
				}
			}
			JOINT rCollar
			{
				OFFSET -3.470700 6.669187 -0.816635 
				CHANNELS 3 Yrotation Zrotation Xrotation
				JOINT rShldr
				{
					OFFSET -3.198488 0.000000 0.000000 
					CHANNELS 3 Zrotation Yrotation Xrotation
					JOINT rForeArm
					{
						OFFSET -10.139888 0.000000 0.000000 
						CHANNELS 3 Yrotation Zrotation Xrotation
						JOINT rHand
						{
							OFFSET -8.370511 0.000000 0.000000 
							CHANNELS 3 Zrotation Yrotation Xrotation
							End Site
							{
								OFFSET -4.083176 0.000000 0.000000 
							}
						}
					}
				}
			}
		}
	}
	JOINT lThigh
	{
		OFFSET 5.308129 -1.633274 1.361059 
		CHANNELS 3 Xrotation Zrotation Yrotation
		JOINT lShin
		{
			OFFSET -2.041588 -20.007561 0.000000 
			CHANNELS 3 Xrotation Zrotation Yrotation
			JOINT lFoot
			{
				OFFSET 0.000000 -19.190928 -1.224953 
				CHANNELS 3 Xrotation Yrotation Zrotation
				End Site
				{
					OFFSET 0.000000 -2.449906 4.627600 
				}
			}
		}
	}
	JOINT rThigh
	{
		OFFSET -5.308129 -1.633274 1.361059 
		CHANNELS 3 Xrotation Zrotation Yrotation
		JOINT rShin
		{
			OFFSET 2.041588 -20.007561 0.000000 
			CHANNELS 3 Xrotation Zrotation Yrotation
			JOINT rFoot
			{
				OFFSET 0.000000 -19.190928 -1.224953 
				CHANNELS 3 Xrotation Yrotation Zrotation
				End Site
				{
					OFFSET 0.000000 -2.449906 4.627600 
				}
			}
		}
	}
}
MOTION
Frames: 20
Frame Time: 0.033333
-57.293781 28.551483 0.315652 -42.003178 -7.581779 6.275625 0.000000 0.000000 0.000000 39.613075 6.715210 1.869000 27.153837 7.037452 12.518228 -11.663558 4.754711 9.760761 -8.486698 -1.755599 24.994225 -50.170147 -48.783531 -6.248785 -63.921310 0.074589 50.843124 -11.319515 5.066168 -3.688003 -1.428687 22.419765 24.987452 24.110109 43.478497 -16.165695 59.317818 -1.624276 54.254337 10.336987 -10.020409 -4.208002 -43.210041 17.596436 3.017184 87.608109 4.884148 9.315572 -7.883309 -0.310629 4.908076 -33.334084 -21.517517 -14.048022 82.142220 -0.812082 -13.044478 -1.110089 -0.045185 2.068468 
-57.284767 28.571692 0.347628 -42.060482 -7.366836 6.369921 0.000000 0.000000 0.000000 39.690369 6.725009 1.859303 27.087732 6.996933 12.605425 -12.048300 4.502754 9.884900 -8.560143 -1.737536 24.999701 -49.749641 -48.941555 -6.321246 -63.814579 -0.110141 49.452938 -10.981877 5.132227 -3.685902 -1.550546 22.621414 24.994677 23.735382 43.437321 -16.915958 60.735462 -1.780787 51.266945 11.181607 -10.816105 -4.347454 -43.038395 17.329960 3.072159 87.599632 4.835206 9.298915 -8.088725 -0.347428 4.893944 -33.773811 -21.654663 -13.674509 82.670502 -1.007177 -12.511968 0.068238 -0.014664 2.375225 
-57.237896 28.626879 0.280095 -42.659729 -7.632759 6.758922 0.000000 0.000000 0.000000 40.147167 7.145205 1.733336 27.655560 7.271644 12.672038 -12.526288 3.813994 10.355665 -9.101671 -2.104247 24.997231 -48.234921 -48.391014 -7.049313 -64.341278 -0.132700 49.079987 -11.024671 5.550186 -3.729225 -2.031240 22.857098 24.987665 23.514099 43.990692 -16.902802 60.613552 -2.054813 54.519619 11.528682 -9.813293 -4.254613 -42.561668 17.233383 2.762835 87.423378 5.020783 9.480426 -8.013565 -0.307860 4.889755 -33.240978 -21.600458 -13.753387 82.448883 -0.928260 -11.816763 1.519983 0.036939 2.476365 
-57.297565 28.602821 0.369250 -42.509991 -7.672472 6.700857 0.000000 0.000000 0.000000 39.828896 6.989342 1.643692 27.344799 7.091965 12.618714 -11.370054 4.257473 10.243628 -8.879365 -2.255884 24.990929 -48.434296 -48.115646 -6.687938 -64.479408 -0.101608 50.044487 -10.967272 5.210099 -3.699488 -1.924173 22.303127 24.997494 24.625761 44.358059 -15.339952 59.723209 -1.777722 55.457092 11.235916 -10.100520 -4.274079 -42.773968 17.432190 2.764050 87.624161 5.003116 9.349867 -8.118617 -0.338508 4.877017 -32.271782 -21.197514 -14.092014 82.069122 -0.849855 -12.732232 -2.162816 -0.080653 2.618615 
-57.313244 28.596519 0.327598 -42.523781 -7.590200 6.364026 0.000000 0.000000 0.000000 39.797165 6.706089 1.692141 27.501438 6.844707 12.592190 -11.407304 4.462000 10.050389 -8.587623 -2.441564 24.998453 -48.899773 -48.181667 -6.544549 -64.219841 -0.094774 50.213982 -10.919586 5.232405 -3.698650 -1.762235 22.129419 24.989899 25.100796 44.264187 -14.713404 58.699295 -1.515222 55.829967 11.109285 -9.931237 -4.247997 -42.629463 17.594421 2.966000 87.523079 4.932751 9.437967 -7.946732 -0.351433 4.825902 -32.445107 -21.136374 -13.955690 81.751541 -0.802404 -13.514711 -1.803679 -0.025595 2.290884 
-57.275795 28.542686 0.263724 -42.166733 -7.659579 6.265940 0.000000 0.000000 0.000000 39.609894 6.705848 1.761172 27.170454 6.904503 12.495277 -11.476405 4.435803 9.854168 -8.501163 -1.979427 24.999964 -50.389927 -48.615849 -6.147052 -64.201897 0.130573 50.766247 -11.434214 5.031871 -3.682291 -1.528208 22.620255 24.994259 24.577087 43.914036 -15.369087 59.384922 -1.617653 54.456783 10.879623 -10.314090 -4.275556 -43.114635 17.421614 2.805552 87.561325 4.971866 9.455352 -7.756751 -0.338523 4.711353 -33.091209 -20.757299 -13.571885 81.777100 -0.986355 -13.582416 -1.610461 -0.037936 2.599577 
-57.245388 28.563890 0.262732 -42.139584 -7.473735 6.362751 0.000000 0.000000 0.000000 39.646698 6.744997 1.730937 27.122068 6.946540 12.348741 -11.800293 4.021715 9.878324 -8.447826 -2.093050 24.992050 -50.317680 -49.019318 -5.781628 -64.135712 -0.007961 50.195820 -11.297878 5.534246 -3.746101 -1.513552 22.393972 24.985624 24.964607 44.160660 -15.653749 60.505451 -1.943994 54.250473 11.802416 -10.336440 -4.330368 -43.022804 17.009668 2.689179 87.500153 5.001432 9.424211 -7.622403 -0.299534 4.480999 -33.553303 -20.985128 -13.324273 82.139740 -1.134953 -13.017011 -0.291947 -0.009218 2.777344 
-57.224911 28.596102 0.290104 -42.522770 -7.683087 6.641490 0.000000 0.000000 0.000000 39.858829 7.096507 1.703049 27.283863 6.993196 12.388691 -11.629562 3.905334 9.955568 -8.692027 -2.102307 24.995564 -50.048203 -48.982754 -5.945557 -64.147682 0.062004 51.376087 -11.399411 5.101320 -3.692884 -1.705529 22.365095 24.993168 25.180851 44.683422 -15.419733 60.241695 -2.141979 57.039291 12.055975 -10.010307 -4.313756 -42.708385 16.969931 2.469267 87.549538 5.128351 9.562467 -7.722498 -0.310625 4.487917 -33.060314 -20.931559 -13.399075 82.208611 -1.056649 -12.490779 -0.060568 -0.000545 2.966553 
-57.256035 28.581179 0.347035 -42.467224 -7.731894 6.622133 0.000000 0.000000 0.000000 39.663448 7.008864 1.643693 27.146444 7.095388 12.135595 -10.916967 3.769996 10.012698 -8.955729 -2.347019 24.994221 -49.818676 -48.411133 -6.089555 -64.443573 0.080956 51.377869 -11.348782 5.229433 -3.712869 -1.829152 22.111298 24.991207 25.542513 44.992836 -14.693598 59.371227 -1.827957 57.221600 12.146601 -9.919143 -4.301997 -42.810429 17.049833 2.425567 87.608170 5.167359 9.599544 -7.565435 -0.273444 4.406541 -32.467358 -20.924463 -13.789167 82.007034 -0.928885 -12.947412 -1.983157 -0.078086 2.859989 
-57.272644 28.574911 0.350615 -42.236469 -7.598309 6.473074 0.000000 0.000000 0.000000 39.373505 6.716240 1.573475 27.022852 6.897401 12.032733 -10.241047 4.651272 9.583177 -8.576699 -2.025399 24.994444 -50.814159 -48.608822 -5.422307 -64.135941 0.105409 51.890057 -11.525340 5.436759 -3.732546 -1.677452 22.155251 24.988171 25.577240 44.568459 -14.158759 58.065762 -1.441308 56.884502 11.798835 -9.956446 -4.284511 -42.972225 17.135767 2.622368 87.636993 5.049208 9.471412 -7.667534 -0.286548 4.508952 -32.757660 -21.185221 -13.854689 81.825287 -0.830308 -13.671391 -1.774431 -0.044400 2.503823 
-57.266724 28.551052 0.279763 -41.887798 -7.670000 6.217552 0.000000 0.000000 0.000000 39.255436 6.686396 1.740633 26.928883 6.800902 12.069163 -10.724535 4.790680 9.251510 -8.145172 -2.024340 24.992409 -50.589211 -48.887913 -5.433451 -63.777916 -0.045711 50.763832 -11.115674 5.240802 -3.710561 -1.608610 22.607199 24.995909 24.714973 44.070602 -14.986275 59.057266 -1.502136 54.377792 10.681058 -10.402399 -4.271361 -43.347919 17.294390 2.632806 87.632011 4.991111 9.290076 -7.710467 -0.304137 4.501458 -33.344376 -20.815311 -13.621871 81.750877 -0.968762 -13.635378 -1.534622 -0.023080 2.552315 
-57.257427 28.559471 0.300456 -42.158081 -7.551380 6.362744 0.000000 0.000000 0.000000 39.539486 6.774585 1.642509 27.079573 6.826136 11.823349 -11.749305 3.978457 9.466467 -8.988212 -2.416021 24.991301 -49.846806 -48.172207 -6.559625 -64.359413 0.169485 50.442043 -11.316313 5.183501 -3.699986 -1.692575 22.433884 24.994518 24.404633 44.342136 -15.713586 59.896919 -1.707684 53.949245 11.559776 -9.830237 -4.263330 -43.033718 17.127394 2.678406 87.616753 5.000365 9.405368 -7.738085 -0.312770 4.540706 -33.812103 -21.068159 -13.287297 82.426979 -1.114385 -12.859332 0.477589 0.007087 2.755592 
-57.230301 28.587996 0.296788 -42.488766 -7.722952 6.572443 0.000000 0.000000 0.000000 39.811195 6.999592 1.495921 27.185011 6.916315 11.658579 -11.352211 3.678583 9.580764 -9.063414 -2.625163 24.993250 -48.295689 -47.986500 -7.093158 -64.370041 0.042105 50.576340 -11.270120 4.894565 -3.659749 -1.886689 22.023190 24.990887 24.653099 45.100277 -15.444016 59.890064 -1.853705 55.401375 11.838159 -9.974632 -4.285666 -42.752026 17.216036 2.617466 87.554047 5.069274 9.614134 -7.671297 -0.323026 4.642332 -33.669651 -21.208902 -13.371289 82.550087 -1.056747 -12.239806 1.656430 0.060235 2.753716 
-57.280758 28.609596 0.353267 -42.444649 -7.751904 6.583430 0.000000 0.000000 0.000000 39.637199 6.921644 1.446266 27.075319 6.912743 11.412761 -10.623073 3.834294 9.435897 -9.500769 -2.683319 24.990860 -48.267513 -47.433479 -7.301960 -64.420486 0.037707 50.080898 -11.050485 4.962568 -3.670593 -2.082846 21.981504 24.994362 24.914352 45.182861 -14.823644 59.210350 -1.707592 56.067730 11.504086 -9.882400 -4.264256 -42.796509 17.350821 2.625319 87.580269 5.059741 9.527870 -7.860282 -0.323063 4.634081 -32.740696 -21.002432 -13.764641 82.273163 -0.879348 -12.017739 -1.291574 -0.062363 2.702724 
-57.306656 28.576723 0.357338 -42.152046 -7.619750 6.334988 0.000000 0.000000 0.000000 39.336803 6.619462 1.279078 26.575115 6.814586 10.682630 -9.526734 3.460713 9.216488 -9.204144 -2.832521 24.991053 -48.701176 -47.339733 -7.230250 -64.334564 0.107366 50.496449 -11.139430 5.152763 -3.695829 -1.900044 22.049742 24.994549 25.302240 44.710007 -14.080838 58.148998 -1.313016 55.675282 11.400628 -9.936264 -4.264418 -43.013660 17.439848 2.788561 87.639252 4.962134 9.437152 -7.730715 -0.332964 4.659990 -32.806580 -21.380613 -14.122565 81.868095 -0.724384 -13.432425 -1.918541 -0.066763 2.117672 
-57.261566 28.539700 0.268262 -42.053722 -7.545453 6.097536 0.000000 0.000000 0.000000 39.425491 6.541071 1.386899 26.441397 6.809528 10.475574 -9.959250 3.154055 9.008344 -8.900333 -2.719882 24.993994 -49.198517 -47.775120 -7.094913 -64.294487 0.164871 50.487354 -11.208302 5.169389 -3.696119 -1.667605 22.076160 24.995625 25.266308 44.424152 -14.870499 58.594288 -1.466176 54.893372 10.088511 -10.081839 -4.201950 -43.097095 17.340021 2.860679 87.595596 4.902974 9.507752 -7.674302 -0.314064 4.592892 -33.206791 -21.116980 -13.713935 81.734131 -0.889681 -13.405219 -1.607163 -0.053855 2.257262 
-57.253845 28.544310 0.284096 -42.290684 -7.545178 6.116896 0.000000 0.000000 0.000000 39.678837 6.706663 1.515282 26.381701 6.829591 10.436799 -10.158943 2.575410 8.993655 -8.951692 -2.679149 24.990995 -48.971439 -48.118103 -7.089737 -64.433853 0.094082 49.805981 -11.558807 5.513271 -3.741020 -1.815274 22.697069 24.990841 24.433067 44.184116 -16.142361 60.268353 -1.864110 54.393795 11.685673 -9.834290 -4.268031 -42.849960 17.274792 2.811141 87.618073 4.972082 9.407461 -7.611835 -0.310662 4.507920 -33.411659 -21.077726 -13.570145 82.191223 -1.046436 -13.007731 -0.492550 -0.000830 2.353496 
-57.215191 28.607700 0.244606 -42.621574 -7.782372 6.495033 0.000000 0.000000 0.000000 40.024727 7.136629 1.378432 26.484709 7.111204 10.305899 -10.018462 2.178692 9.196489 -9.505970 -2.071584 24.998802 -49.265770 -48.168255 -7.184700 -64.491676 0.217152 50.563686 -11.247100 5.343534 -3.713908 -1.936653 22.138906 24.991152 25.159861 45.381397 -15.914776 60.274883 -2.050052 55.560104 11.932628 -10.242181 -4.326462 -42.594284 17.156895 2.496379 87.480560 5.127285 9.552505 -7.653708 -0.298413 4.460504 -33.508995 -21.262878 -13.571284 82.270744 -0.987414 -12.283850 1.964335 0.044148 2.444057 
-57.263847 28.597582 0.304665 -42.668674 -7.840438 6.506032 0.000000 0.000000 0.000000 39.854156 7.097884 1.270623 26.674408 7.077743 10.078237 -10.158222 2.169291 9.157084 -9.658470 -2.392248 24.992498 -48.590813 -47.630356 -7.392177 -64.492172 0.106819 50.455791 -10.948249 5.386243 -3.720620 -1.889776 21.832045 24.990318 25.408430 45.601131 -15.199213 59.389179 -1.817482 56.663715 11.693371 -9.649302 -4.243298 -42.579170 17.300602 2.535747 87.568611 5.167429 9.589467 -7.653138 -0.315047 4.495781 -32.800758 -21.042946 -13.738519 82.236748 -0.881059 -12.077874 -0.332611 -0.023229 2.542338 
-57.304268 28.577837 0.331040 -42.420876 -7.649729 6.275618 0.000000 0.000000 0.000000 39.550518 6.775774 1.239156 26.424759 6.910431 9.798560 -9.491959 2.954319 8.654660 -9.548706 -2.535069 24.998817 -49.053150 -47.513847 -7.272816 -64.409592 0.187676 50.809319 -11.326652 5.357599 -3.724911 -1.866503 21.747885 24.997751 26.165237 45.268799 -14.679589 58.731258 -1.577591 56.216503 12.025626 -9.670893 -4.268982 -42.744942 17.339558 2.652254 87.616257 5.039598 9.432265 -7.745337 -0.297780 4.429768 -32.591625 -21.165672 -13.968328 81.896362 -0.812617 -13.242841 -1.933085 -0.027551 2.280552 
